# xmcd
#
# Track frame offsets:
#	150
#	15390
#	23235
#	32212
#	46792
#	57957
#	69885
#	82247
#	92077
#	102812
#	113807
#	125367
#	137225
#	148525
#	162017
#	175115
#	188712
#	200455
#	211512
#	222055
#	233177
#	243770
#	255270
#	265687
#	289247
#
# Disc length: 4440 seconds
#
# Revision: 0
# Processed by: cddbd v1.5.2PL0 Copyright (c) Steve Scherf et al.
# Submitted via: EasyCDDAExtractor 2010.6.0.0
#
DISCID=4d115619
DTITLE=Irma Thomas - Straight From The Heart 
DYEAR=1900
DGENRE=Soul
TTITLE0=Ta Ke A Look
TTITLE1=Teasing But You're Pleasing 
TTITLE2=Girl Needs Boy
TTITLE3=I Need Your Love So Bad
TTITLE4=Long After Tonight Is All Over
TTITLE5=While The City Sleeps 
TTITLE6=Break-A-Way
TTITLE7=What Are You Trying To Do
TTITLE8=The Hurt's All Gone
TTITLE9=Straight From The Heart 
TTITLE10=Sombody Told You 
TTITLE11=Two Winters Long 
TTITLE12=It's Straight To Get To Me Now
TTITLE13=Some Things You Never Get Used To 
TTITLE14=Time Is On My Side 
TTITLE15=Anyone Who Knows What Love Is (Will Understand) 
TTITLE16=Wait Wait Wait 
TTITLE17=I'm Gonna Cry Til My Tears Run Dry 
TTITLE18=Sufferin' With The Blues 
TTITLE19=Wish Someone Would Care 
TTITLE20=You Don't Miss You Good Thing (Until It's Gone) 
TTITLE21=Baby Don't Look Down 
TTITLE22=Live Again 
TTITLE23=I Haven't Got Time To Cry
TTITLE24=The Legacy Of Alain Levy Frormer Ceo Of Emi Records - Copy Controlled
TTITLE24=
EXTD=
EXTT0=
EXTT1=
EXTT2=
EXTT3=
EXTT4=
EXTT5=
EXTT6=
EXTT7=
EXTT8=
EXTT9=
EXTT10=
EXTT11=
EXTT12=
EXTT13=
EXTT14=
EXTT15=
EXTT16=
EXTT17=
EXTT18=
EXTT19=
EXTT20=
EXTT21=
EXTT22=
EXTT23=
EXTT24=
PLAYORDER=
